#N canvas 418 0 1493 988 12;
#X obj 45 893 dac~;
#X obj 261 21 loadbang;
#X obj 735 889 *~;
#X obj 328 545 vsl 15 128 0 1 0 0 empty empty empty 0 -9 0 10 #fcfcfc #000000 #000000 0 1;
#X obj 328 684 pack 0 50;
#X obj 328 710 line~;
#X obj 804 514 soundfiler;
#X floatatom 804 540 9 0 0 0 - - - 0;
#X obj 805 733 line~;
#X floatatom 831 603 5 0 0 0 - - - 0;
#X obj 805 681 pack 0 0;
#X obj 831 628 i;
#X msg 805 707 1 \, \$1 \$2;
#X obj 804 432 bng 15 250 50 0 empty empty empty 17 7 0 10 #fcfcfc #000000 #000000;
#N canvas 0 50 450 250 (subpatch) 0;
#X array intro 173462 float 2;
#X coords 0 1 173462 -1 200 140 1;
#X restore 805 35 graph;
#N canvas 0 50 450 250 (subpatch) 0;
#X array inst-loop 761356 float 2;
#X coords 0 1 761356 -1 200 140 1;
#X restore 1007 35 graph;
#N canvas 0 50 450 250 (subpatch) 0;
#X array voc-loop 761356 float 2;
#X coords 0 1 761356 -1 200 140 1;
#X restore 1209 35 graph;
#X obj 520 110 soundfiler;
#X floatatom 520 136 9 0 0 0 - - - 0;
#X obj 521 329 line~;
#X floatatom 547 199 10 0 0 0 - - - 0;
#X obj 521 277 pack 0 0;
#X obj 547 224 i;
#X msg 521 303 1 \, \$1 \$2;
#X obj 520 44 bng 15 250 50 0 empty empty empty 17 7 0 10 #fcfcfc #000000 #000000;
#X obj 682 353 delay 300;
#X msg 520 65 read -resize game-assets/intro.wav intro, f 28;
#X obj 521 355 tabread4~ intro;
#X obj 833 655 delay 100;
#X obj 43 81 receive collision;
#X obj 44 190 soundfiler;
#X floatatom 44 216 9 0 0 0 - - - 0;
#X obj 45 409 line~;
#X floatatom 71 279 10 0 0 0 - - - 0;
#X obj 45 357 pack 0 0;
#X obj 71 304 i;
#X msg 45 383 1 \, \$1 \$2;
#X obj 44 112 bng 15 250 50 0 empty empty empty 17 7 0 10 #fcfcfc #000000 #000000;
#X msg 44 132 read -resize game-assets/punch.wav punch, f 22;
#X obj 45 435 tabread4~ punch;
#N canvas 0 50 450 250 (subpatch) 0;
#X array punch 100 float 3;
#A 0 0 0 0 0 0 0 0 0 0 0 0 0 0 0 0 0 0 0 0 0 0 0 0 0 0 0 0 0 0 0 0 0 0 0 0 0 0 0 0 0 0 0 0 0 0 0 0 0 0 0 0 0 0 0 0 0 0 0 0 0 0 0 0 0 0 0 0 0 0 0 0 0 0 0 0 0 0 0 0 0 0 0 0 0 0 0 0 0 0 0 0 0 0 0 0 0 0 0 0 0;
#X coords 0 1 100 -1 200 140 1 0 0;
#X restore 805 198 graph;
#X obj 1141 212 receive collect;
#X obj 572 510 soundfiler;
#X floatatom 572 536 9 0 0 0 - - - 0;
#X obj 573 729 line~;
#X floatatom 599 599 5 0 0 0 - - - 0;
#X obj 573 677 pack 0 0;
#X obj 599 624 i;
#X msg 573 703 1 \, \$1 \$2;
#X obj 572 427 bng 15 250 50 0 empty empty empty 17 7 0 10 #fcfcfc #000000 #000000;
#X obj 594 755 tabread4~ inst-loop;
#X obj 601 651 delay 100;
#X msg 572 449 read -resize game-assets/inst-loop.wav inst-loop, f 26;
#X obj 254 545 vsl 15 128 0 1 0 0 empty empty empty 0 -9 0 10 #fcfcfc #000000 #000000 0 1;
#X obj 254 684 pack 0 50;
#X obj 254 710 line~;
#X obj 521 846 *~;
#X obj 318 154 receive inst;
#X msg 335 281 0;
#X msg 386 282 1;
#X msg 804 454 read -resize game-assets/voc-loop.wav voc-loop, f 25;
#X obj 805 759 tabread4~ voc-loop;
#X obj 394 190 receive voc;
#X msg 318 202 0;
#X msg 394 238 1;
#X floatatom 318 227 5 0 0 0 - - - 0;
#X obj 318 252 select 0;
#X msg 335 301 1;
#X msg 386 302 0;
#X obj 45 505 *~;
#X obj 172 322 vsl 15 128 0 1 0 0 empty empty empty 0 -9 0 10 #fcfcfc #000000 #000000 0 1;
#X obj 172 461 pack 0 50;
#X obj 172 487 line~;
#X msg 172 295 1;
#X msg 328 518 0;
#X msg 256 518 1;
#X obj 1131 847 dac~;
#X obj 1140 342 bng 45 250 50 0 empty empty empty 17 7 0 10 #fcfcfc #000000 #000000;
#X obj 1140 276 tgl 15 0 empty empty empty 17 7 0 10 #fcfcfc #000000 #000000 0 1;
#X floatatom 1147 622 7 0 0 0 - - - 0;
#X obj 1145 602 mtof;
#X obj 1142 813 *~;
#X obj 1191 879 line~;
#X msg 1199 686 0 1000;
#X obj 1215 631 sel 0 1;
#X msg 1249 686 \$1 100;
#X obj 1305 649 hsl 128 15 0 50 0 0 empty empty empty -2 -8 0 10 #fcfcfc #000000 #000000 0 1;
#X floatatom 1307 674 5 0 0 0 - - - 0;
#X floatatom 1305 757 5 0 0 0 - - - 0;
#X obj 1305 737 / 100;
#X obj 1088 614 line~;
#X obj 1146 674 *~;
#X obj 1067 431 bng 15 250 50 0 empty empty empty 17 7 0 10 #fcfcfc #000000 #000000;
#X msg 1088 502 1 \$1;
#X floatatom 1088 472 5 0 0 0 - - - 0;
#X obj 1147 645 phasor~;
#X floatatom 1139 438 5 0 0 0 - - - 0;
#X msg 1083 364 0;
#X obj 1178 405 + 1;
#X obj 1140 405 f;
#X msg 1221 508 0;
#X obj 1140 310 metro 160;
#X obj 1139 468 select 0 1;
#X msg 1067 563 0 250;
#X obj 1141 243 bng 16 250 50 0 empty empty empty 0 -8 0 10 #fcfcfc #000000 #000000;
#X msg 1323 573 50;
#X msg 1177 509 85;
#X msg 1139 511 90;
#X obj 318 178 bng 19 250 50 0 empty empty empty 0 -10 0 12 #fcfcfc #000000 #000000;
#X obj 394 214 bng 19 250 50 0 empty empty empty 0 -10 0 12 #fcfcfc #000000 #000000;
#X obj 547 172 / 44.1;
#X obj 599 573 / 44.1;
#X obj 831 577 / 44.1;
#X obj 71 253 / 44.1;
#X connect 1 0 74 0;
#X connect 1 0 24 0;
#X connect 1 0 75 0;
#X connect 1 0 73 0;
#X connect 2 0 0 0;
#X connect 2 0 0 1;
#X connect 3 0 4 0;
#X connect 4 0 5 0;
#X connect 5 0 2 1;
#X connect 6 0 7 0;
#X connect 7 0 10 0;
#X connect 7 0 112 0;
#X connect 8 0 61 0;
#X connect 9 0 11 0;
#X connect 9 0 28 1;
#X connect 10 0 12 0;
#X connect 11 0 10 1;
#X connect 11 0 28 0;
#X connect 12 0 8 0;
#X connect 13 0 60 0;
#X connect 17 0 18 0;
#X connect 18 0 21 0;
#X connect 18 0 110 0;
#X connect 19 0 27 0;
#X connect 20 0 22 0;
#X connect 20 0 25 1;
#X connect 21 0 23 0;
#X connect 22 0 21 1;
#X connect 22 0 25 0;
#X connect 23 0 19 0;
#X connect 24 0 26 0;
#X connect 25 0 13 0;
#X connect 25 0 49 0;
#X connect 26 0 17 0;
#X connect 27 0 56 0;
#X connect 28 0 13 0;
#X connect 29 0 37 0;
#X connect 30 0 31 0;
#X connect 31 0 34 0;
#X connect 31 0 113 0;
#X connect 32 0 39 0;
#X connect 33 0 35 0;
#X connect 34 0 36 0;
#X connect 35 0 34 1;
#X connect 36 0 32 0;
#X connect 37 0 38 0;
#X connect 38 0 30 0;
#X connect 39 0 69 0;
#X connect 41 0 104 0;
#X connect 42 0 43 0;
#X connect 43 0 46 0;
#X connect 43 0 111 0;
#X connect 44 0 50 0;
#X connect 45 0 47 0;
#X connect 45 0 51 1;
#X connect 46 0 48 0;
#X connect 47 0 46 1;
#X connect 47 0 51 0;
#X connect 48 0 44 0;
#X connect 49 0 52 0;
#X connect 50 0 56 0;
#X connect 51 0 49 0;
#X connect 52 0 42 0;
#X connect 53 0 54 0;
#X connect 54 0 55 0;
#X connect 55 0 56 1;
#X connect 56 0 0 0;
#X connect 56 0 0 1;
#X connect 57 0 108 0;
#X connect 58 0 3 0;
#X connect 59 0 3 0;
#X connect 60 0 6 0;
#X connect 61 0 2 0;
#X connect 62 0 109 0;
#X connect 63 0 65 0;
#X connect 64 0 65 0;
#X connect 65 0 66 0;
#X connect 66 0 58 0;
#X connect 66 0 67 0;
#X connect 66 1 59 0;
#X connect 66 1 68 0;
#X connect 67 0 53 0;
#X connect 68 0 53 0;
#X connect 69 0 0 0;
#X connect 69 0 0 1;
#X connect 70 0 71 0;
#X connect 71 0 72 0;
#X connect 72 0 69 1;
#X connect 73 0 70 0;
#X connect 74 0 3 0;
#X connect 75 0 53 0;
#X connect 77 0 92 0;
#X connect 77 0 99 0;
#X connect 78 0 84 0;
#X connect 78 0 97 0;
#X connect 78 0 101 0;
#X connect 78 0 105 0;
#X connect 79 0 95 0;
#X connect 80 0 79 0;
#X connect 81 0 76 0;
#X connect 81 0 76 1;
#X connect 82 0 81 1;
#X connect 83 0 82 0;
#X connect 84 0 83 0;
#X connect 84 1 86 0;
#X connect 85 0 82 0;
#X connect 86 0 87 0;
#X connect 87 0 89 0;
#X connect 88 0 85 0;
#X connect 89 0 88 0;
#X connect 90 0 91 1;
#X connect 91 0 81 0;
#X connect 92 0 94 0;
#X connect 92 0 103 0;
#X connect 93 0 90 0;
#X connect 94 0 93 0;
#X connect 95 0 91 0;
#X connect 96 0 102 0;
#X connect 97 0 99 0;
#X connect 98 0 99 1;
#X connect 99 0 98 0;
#X connect 99 0 96 0;
#X connect 100 0 78 0;
#X connect 101 0 77 0;
#X connect 102 0 107 0;
#X connect 102 1 106 0;
#X connect 102 2 100 0;
#X connect 103 0 90 0;
#X connect 104 0 78 0;
#X connect 105 0 86 0;
#X connect 106 0 80 0;
#X connect 107 0 80 0;
#X connect 108 0 63 0;
#X connect 109 0 64 0;
#X connect 110 0 20 0;
#X connect 111 0 45 0;
#X connect 112 0 9 0;
#X connect 113 0 33 0;
